<?xml version="1.0" encoding="UTF-8" standalone="no"?>
<!DOCTYPE svg PUBLIC "-//W3C//DTD SVG 1.1//EN" "http://www.w3.org/Graphics/SVG/1.1/DTD/svg11.dtd">
<svg width="100%" height="100%" viewBox="0 0 512 512" version="1.1" xmlns="http://www.w3.org/2000/svg" xmlns:xlink="http://www.w3.org/1999/xlink" xml:space="preserve" xmlns:serif="http://www.serif.com/" style="fill-rule:evenodd;clip-rule:evenodd;stroke-linejoin:round;stroke-miterlimit:2;">
    <g transform="matrix(1.14817,0,0,1.14817,-28.5362,-37.1362)">
        <g transform="matrix(4.16667,0,0,4.16667,257.033,100.266)">
            <path d="M0,17.505C0.58,17.585 1.164,17.653 1.735,17.755C4.512,18.254 7.246,18.876 9.912,19.647C10.031,19.68 10.141,19.719 10.259,19.752L17.226,-1.405L16.676,22.097C16.921,22.207 17.175,22.3 17.416,22.415C20.32,23.794 23.011,25.538 25.085,27.921C26.537,29.55 27.481,31.573 28.209,33.677L28.285,-16.172L-0.571,-16.172L-2.539,-5.028L7.931,-5.028L0,17.505Z" style="fill:rgb(143,121,88);fill-rule:nonzero;"/>
        </g>
        <g transform="matrix(4.16667,0,0,4.16667,374.283,142.27)">
            <path d="M0,69.715L0.055,33.803C0.059,33.799 0.068,33.791 0.072,33.786L0.059,33.592C0.059,33.503 0.055,33.418 0.055,33.325C0.047,32.787 0.038,32.258 0.059,31.729C0.063,31.573 0.055,31.42 0.072,31.264C0.068,31.234 0.063,31.205 0.059,31.175L0.059,30.972C0.051,30.98 0.042,30.989 0.034,30.997C-0.106,29.884 -0.237,28.758 -0.601,27.721C-1.35,25.461 -2.332,23.269 -3.885,21.521C-5.781,19.345 -8.202,17.72 -10.818,16.4C-11.068,16.273 -11.305,16.133 -11.559,16.014C-12.519,15.557 -13.51,15.138 -14.504,14.749C-15.99,14.178 -17.518,13.695 -19.058,13.246C-19.177,13.213 -19.295,13.187 -19.41,13.158C-21.966,12.43 -24.582,11.833 -27.235,11.355C-27.955,11.232 -28.691,11.156 -29.415,11.041C-29.559,11.02 -29.707,11.003 -29.855,10.982C-33.808,10.373 -37.812,9.911 -41.863,9.653C-43.89,9.526 -45.926,9.437 -47.894,9.099C-50.657,8.671 -53.324,7.969 -55.91,7.114C-60.709,5.472 -65.246,3.233 -69.085,0.147C-71.714,-2.007 -74.084,-4.601 -75.214,-7.928C-75.569,-9.029 -75.857,-10.154 -76.251,-11.234C-76.272,-11.293 -76.289,-11.352 -76.31,-11.411C-76.348,-11.378 -76.378,-11.005 -76.373,-10.374C-76.344,-5.774 -68.137,14.563 -53.98,22.228C-62.851,22.672 -71.121,12.155 -71.244,12.282C-70.956,19.917 -64.756,33.016 -50.814,36.368C-61.674,36.859 -66.017,31.306 -67.286,30.426C-67.033,31.391 -64.586,45.777 -43.103,49.916C-43.098,49.912 -43.098,49.912 -43.094,49.907L-50.065,69.715L-57.984,69.715L-59.994,81.126L-31.942,81.126L-29.978,69.986L-37.761,69.986L-32.725,54.83L-30.046,46.763L-12.325,46.763L-12.934,69.986L-20.582,69.986L-22.546,81.126L5.773,81.126L7.783,69.715L0,69.715Z" style="fill:rgb(143,121,88);fill-rule:nonzero;"/>
        </g>
    </g>
</svg>
