<?xml version="1.0" encoding="UTF-8" standalone="no"?>
<!DOCTYPE svg PUBLIC "-//W3C//DTD SVG 1.1//EN" "http://www.w3.org/Graphics/SVG/1.1/DTD/svg11.dtd">
<svg width="100%" height="100%" viewBox="0 0 3400 448" version="1.1" xmlns="http://www.w3.org/2000/svg" xmlns:xlink="http://www.w3.org/1999/xlink" xml:space="preserve" xmlns:serif="http://www.serif.com/" style="fill-rule:evenodd;clip-rule:evenodd;stroke-linejoin:round;stroke-miterlimit:2;">
    <g transform="matrix(1,0,0,1,-333.332,-1833.33)">
        <g id="Layer-1" serif:id="Layer 1" transform="matrix(4.16667,0,0,4.16667,0,0)">
            <g>
                <g transform="matrix(1,0,0,1,104.571,547.374)">
                    <path d="M0,-107.374L-8.052,-100.532L-15.932,-55.834L-10.296,-48.99L18.832,-48.99L12.23,-11.542L-11.26,-11.542L-7.947,-30.334L-20.431,-30.334L-24.571,-6.849L-24.571,-6.843L-18.934,0L15.831,0L23.881,-6.844L32.118,-53.552L26.48,-60.397L-2.643,-60.397L3.604,-95.83L27.089,-95.83L23.78,-77.038L36.257,-77.038L40.4,-100.532L34.764,-107.374L0,-107.374Z" style="fill:rgb(143,121,88);fill-rule:nonzero;"/>
                </g>
                <g transform="matrix(1,0,0,1,165.631,547.374)">
                    <path d="M0,-107.374L-8.047,-100.532L-24.567,-6.844L-18.929,0L15.831,0L23.885,-6.844L40.405,-100.532L34.764,-107.374L0,-107.374ZM3.604,-95.83L27.094,-95.83L12.23,-11.542L-11.256,-11.542L3.604,-95.83Z" style="fill:rgb(143,121,88);fill-rule:nonzero;"/>
                </g>
                <g transform="matrix(1,0,0,1,250.322,547.374)">
                    <path d="M0,-107.374L-2.035,-95.83L5.477,-95.83L-9.383,-11.542L-30.592,-11.542L-15.727,-95.83L-8.21,-95.83L-6.175,-107.374L-34.494,-107.374L-36.533,-95.83L-28.344,-95.83L-44.034,-6.844L-38.396,0L-5.781,0L2.268,-6.844L17.958,-95.83L26.148,-95.83L28.184,-107.374L0,-107.374Z" style="fill:rgb(143,121,88);fill-rule:nonzero;"/>
                </g>
                <g transform="matrix(1,0,0,1,319.168,547.374)">
                    <path d="M0,-107.374L-2.01,-95.969L7.115,-95.969L-4.148,-32.077L-14.36,-107.374L-35.7,-107.374L-37.714,-95.969L-28.987,-95.969L-43.898,-11.406L-52.625,-11.406L-54.636,0L-25.106,0L-23.095,-11.406L-32.356,-11.406L-21.069,-75.429L-10.746,0L1.736,0L18.661,-95.969L27.384,-95.969L29.394,-107.374L0,-107.374Z" style="fill:rgb(143,121,88);fill-rule:nonzero;"/>
                </g>
                <g transform="matrix(1,0,0,1,353.39,547.374)">
                    <path d="M0,-107.374L-2.035,-95.83L6.687,-95.83L-8.173,-11.542L-16.895,-11.542L-18.936,0L28.984,0L37.038,-6.844L53.557,-100.532L47.916,-107.374L0,-107.374ZM19.173,-95.83L40.242,-95.83L25.382,-11.542L4.309,-11.542L19.173,-95.83Z" style="fill:rgb(143,121,88);fill-rule:nonzero;"/>
                </g>
                <g transform="matrix(1,0,0,1,575.368,547.389)">
                    <path d="M0,-107.375L-2.011,-95.968L7.119,-95.968L-4.147,-32.081L-14.36,-107.375L-35.7,-107.375L-37.711,-95.968L-28.987,-95.968L-43.898,-11.405L-52.626,-11.405L-54.635,0L-25.106,0L-23.096,-11.405L-32.357,-11.405L-21.065,-75.433L-10.746,0L1.735,0L18.661,-95.968L27.383,-95.968L29.394,-107.375L0,-107.375Z" style="fill:rgb(143,121,88);fill-rule:nonzero;"/>
                </g>
                <g transform="matrix(1,0,0,1,619.792,547.374)">
                    <path d="M0,-107.374L-8.047,-100.532L-24.566,-6.844L-18.928,0L15.831,0L23.886,-6.844L33.117,-59.19L7.075,-59.19L5.043,-47.648L18.6,-47.648L12.23,-11.542L-11.256,-11.542L3.604,-95.83L27.094,-95.83L23.713,-76.64L36.194,-76.64L40.405,-100.532L34.764,-107.374L0,-107.374Z" style="fill:rgb(143,121,88);fill-rule:nonzero;"/>
                </g>
                <g transform="matrix(1,0,0,1,670.254,547.374)">
                    <path d="M0,-107.374L-2.036,-95.83L6.687,-95.83L-8.168,-11.542L-16.895,-11.542L-18.931,0L31.671,0L36.877,-29.529L25.868,-29.529L22.698,-11.542L4.309,-11.542L10.865,-48.724L30.732,-48.724L32.768,-60.265L12.901,-60.265L19.173,-95.83L37.558,-95.83L34.388,-77.847L45.393,-77.847L50.602,-107.374L0,-107.374Z" style="fill:rgb(143,121,88);fill-rule:nonzero;"/>
                </g>
                <g transform="matrix(1,0,0,1,728.903,547.374)">
                    <path d="M0,-107.374L-2.01,-95.969L6.713,-95.969L-8.173,-11.542L-16.895,-11.542L-18.931,0L31.667,0L37.842,-35.028L26.838,-35.028L22.695,-11.542L4.309,-11.542L19.173,-95.83L29.775,-95.83L31.811,-107.374L0,-107.374Z" style="fill:rgb(143,121,88);fill-rule:nonzero;"/>
                </g>
                <g transform="matrix(1,0,0,1,786.345,547.374)">
                    <path d="M0,-107.374L-2.039,-95.83L6.688,-95.83L-8.173,-11.542L-16.895,-11.542L-18.935,0L31.671,0L36.873,-29.529L25.869,-29.529L22.699,-11.542L4.31,-11.542L10.865,-48.724L30.728,-48.724L32.764,-60.265L12.896,-60.265L19.173,-95.83L37.559,-95.83L34.388,-77.847L45.393,-77.847L50.602,-107.374L0,-107.374Z" style="fill:rgb(143,121,88);fill-rule:nonzero;"/>
                </g>
                <g transform="matrix(1,0,0,1,855.597,547.374)">
                    <path d="M0,-107.374L-8.052,-100.532L-15.932,-55.834L-10.295,-48.99L18.832,-48.99L12.226,-11.542L-11.26,-11.542L-7.946,-30.334L-20.431,-30.334L-24.571,-6.844L-18.933,0L15.831,0L23.882,-6.844L32.118,-53.552L26.48,-60.397L-2.647,-60.397L3.6,-95.83L27.089,-95.83L23.776,-77.038L36.261,-77.038L40.4,-100.532L34.764,-107.374L0,-107.374Z" style="fill:rgb(143,121,88);fill-rule:nonzero;"/>
                </g>
                <g transform="matrix(1,0,0,1,481.295,456.184)">
                    <path d="M0,17.505C0.58,17.585 1.164,17.653 1.735,17.755C4.512,18.254 7.246,18.876 9.912,19.647C10.031,19.68 10.141,19.719 10.259,19.752L17.226,-1.405L16.676,22.097C16.921,22.207 17.175,22.3 17.416,22.415C20.32,23.794 23.011,25.538 25.085,27.921C26.537,29.55 27.481,31.573 28.209,33.677L28.285,-16.172L-0.571,-16.172L-2.539,-5.028L7.931,-5.028L0,17.505Z" style="fill:rgb(143,121,88);fill-rule:nonzero;"/>
                </g>
                <g transform="matrix(1,0,0,1,509.435,466.265)">
                    <path d="M0,69.715L0.055,33.803C0.059,33.799 0.068,33.791 0.072,33.786L0.059,33.592C0.059,33.503 0.055,33.418 0.055,33.325C0.047,32.787 0.038,32.258 0.059,31.729C0.063,31.573 0.055,31.42 0.072,31.264C0.068,31.234 0.063,31.205 0.059,31.175L0.059,30.972C0.051,30.98 0.042,30.989 0.034,30.997C-0.106,29.884 -0.237,28.758 -0.601,27.721C-1.35,25.461 -2.332,23.269 -3.885,21.521C-5.781,19.345 -8.202,17.72 -10.818,16.4C-11.068,16.273 -11.305,16.133 -11.559,16.014C-12.519,15.557 -13.51,15.138 -14.504,14.749C-15.99,14.178 -17.518,13.695 -19.058,13.246C-19.177,13.213 -19.295,13.187 -19.41,13.158C-21.966,12.43 -24.582,11.833 -27.235,11.355C-27.955,11.232 -28.691,11.156 -29.415,11.041C-29.559,11.02 -29.707,11.003 -29.855,10.982C-33.808,10.373 -37.812,9.911 -41.863,9.653C-43.89,9.526 -45.926,9.437 -47.894,9.099C-50.657,8.671 -53.324,7.969 -55.91,7.114C-60.709,5.472 -65.246,3.233 -69.085,0.147C-71.714,-2.007 -74.084,-4.601 -75.214,-7.928C-75.569,-9.029 -75.857,-10.154 -76.251,-11.234C-76.272,-11.293 -76.289,-11.352 -76.31,-11.411C-76.348,-11.378 -76.378,-11.005 -76.373,-10.374C-76.344,-5.774 -68.137,14.563 -53.98,22.228C-62.851,22.672 -71.121,12.155 -71.244,12.282C-70.956,19.917 -64.756,33.016 -50.814,36.368C-61.674,36.859 -66.017,31.306 -67.286,30.426C-67.033,31.391 -64.586,45.777 -43.103,49.916C-43.098,49.912 -43.098,49.912 -43.094,49.907L-50.065,69.715L-57.984,69.715L-59.994,81.126L-31.942,81.126L-29.978,69.986L-37.761,69.986L-32.725,54.83L-30.046,46.763L-12.325,46.763L-12.934,69.986L-20.582,69.986L-22.546,81.126L5.773,81.126L7.783,69.715L0,69.715Z" style="fill:rgb(143,121,88);fill-rule:nonzero;"/>
                </g>
            </g>
        </g>
    </g>
</svg>
